<svg width="32" height="32" viewBox="0 0 32 32" fill="none" xmlns="http://www.w3.org/2000/svg">
<path d="M20.6667 7.33333C22.1333 7.33333 23.3333 6.13333 23.3333 4.66667C23.3333 3.2 22.1333 2 20.6667 2C19.2 2 18 3.2 18 4.66667C18 6.13333 19.2 7.33333 20.6667 7.33333ZM6.66667 16C3 16 0 19 0 22.6667C0 26.3333 3 29.3333 6.66667 29.3333C10.3333 29.3333 13.3333 26.3333 13.3333 22.6667C13.3333 19 10.3333 16 6.66667 16ZM6.66667 27.3333C4.06667 27.3333 2 25.2667 2 22.6667C2 20.0667 4.06667 18 6.66667 18C9.26667 18 11.3333 20.0667 11.3333 22.6667C11.3333 25.2667 9.26667 27.3333 6.66667 27.3333ZM14.4 14.0667L17.5333 10.8667L18.5333 11.8667C20.2 13.6 22.5333 14.6 25.2667 14.6V11.9333C23.2667 11.9333 21.6 11.2 20.4 10L17.8 7.46667C17.4 7 16.7333 6.66667 16 6.66667C15.2667 6.66667 14.6 6.93333 14.1333 7.46667L10.4667 11.1333C10 11.6 9.66667 12.2667 9.66667 13C9.66667 13.7333 10 14.4 10.4667 14.9333L14.6667 18.6667V25.3333H17.3333V17L14.4 14.0667ZM25.3333 16C21.6667 16 18.6667 19 18.6667 22.6667C18.6667 26.3333 21.6667 29.3333 25.3333 29.3333C29 29.3333 32 26.3333 32 22.6667C32 19 29 16 25.3333 16ZM25.3333 27.3333C22.7333 27.3333 20.6667 25.2667 20.6667 22.6667C20.6667 20.0667 22.7333 18 25.3333 18C27.9333 18 30 20.0667 30 22.6667C30 25.2667 27.9333 27.3333 25.3333 27.3333Z" fill="black"/>
</svg>
