<svg width="44" height="44" viewBox="0 0 44 44" fill="none" xmlns="http://www.w3.org/2000/svg">
<g clip-path="url(#clip0_33_2026)">
<path d="M31.1668 9.16666H5.50016C3.47433 9.16666 1.8335 10.8075 1.8335 12.8333V29.3333H5.50016C5.50016 32.3675 7.966 34.8333 11.0002 34.8333C14.0343 34.8333 16.5002 32.3675 16.5002 29.3333H26.5835C26.5835 32.3675 29.0493 34.8333 32.0835 34.8333C35.1177 34.8333 37.5835 32.3675 37.5835 29.3333H42.1668V20.1667L31.1668 9.16666ZM5.50016 20.1667V12.8333H12.8335V20.1667H5.50016ZM11.0002 32.0833C9.4785 32.0833 8.25016 30.855 8.25016 29.3333C8.25016 27.8117 9.4785 26.5833 11.0002 26.5833C12.5218 26.5833 13.7502 27.8117 13.7502 29.3333C13.7502 30.855 12.5218 32.0833 11.0002 32.0833ZM23.8335 20.1667H16.5002V12.8333H23.8335V20.1667ZM32.0835 32.0833C30.5618 32.0833 29.3335 30.855 29.3335 29.3333C29.3335 27.8117 30.5618 26.5833 32.0835 26.5833C33.6052 26.5833 34.8335 27.8117 34.8335 29.3333C34.8335 30.855 33.6052 32.0833 32.0835 32.0833ZM27.5002 20.1667V12.8333H29.3335L36.6668 20.1667H27.5002Z" fill="black"/>
</g>
<defs>
<clipPath id="clip0_33_2026">
<rect width="44" height="44" fill="white"/>
</clipPath>
</defs>
</svg>
