<svg width="40" height="40" viewBox="0 0 40 40" fill="none" xmlns="http://www.w3.org/2000/svg">
<g clip-path="url(#clip0_33_1961)">
<path d="M31.5333 10.0167C31.1917 9.03334 30.2583 8.33334 29.1667 8.33334H10.8333C9.74167 8.33334 8.80833 9.03334 8.46667 10.0167L5 20V33.3333C5 34.25 5.75 35 6.66667 35H8.33333C9.25833 35 10 34.25 10 33.3333V31.6667H30V33.3333C30 34.25 30.75 35 31.6667 35H33.3333C34.2583 35 35 34.25 35 33.3333V20L31.5333 10.0167ZM10.8333 26.6667C9.45 26.6667 8.33333 25.55 8.33333 24.1667C8.33333 22.7833 9.45 21.6667 10.8333 21.6667C12.2167 21.6667 13.3333 22.7833 13.3333 24.1667C13.3333 25.55 12.2167 26.6667 10.8333 26.6667ZM29.1667 26.6667C27.7833 26.6667 26.6667 25.55 26.6667 24.1667C26.6667 22.7833 27.7833 21.6667 29.1667 21.6667C30.55 21.6667 31.6667 22.7833 31.6667 24.1667C31.6667 25.55 30.55 26.6667 29.1667 26.6667ZM8.33333 18.3333L10.8333 10.8333H29.1667L31.6667 18.3333H8.33333Z" fill="black"/>
</g>
<defs>
<clipPath id="clip0_33_1961">
<rect width="40" height="40" fill="white"/>
</clipPath>
</defs>
</svg>
